<?xml version="1.0" encoding="utf-8"?>
<svg version="1.1" id="Calque_1" xmlns="http://www.w3.org/2000/svg" xmlns:xlink="http://www.w3.org/1999/xlink" x="0px" y="0px"
	 viewBox="0 0 590 590" style="enable-background:new 0 0 590 590;" xml:space="preserve">
<style type="text/css">
	.st0{fill:#3FA648;stroke:#23552A;stroke-width:19.2122;stroke-linecap:round;stroke-linejoin:round;}
	.st1{fill:#010101;}
	.st2{fill:none;stroke:#010101;stroke-width:7.5241;stroke-linecap:round;stroke-linejoin:round;}
</style>
<g id="layer1">
	<path id="path3068" class="st0" d="M328.7,395.8
		c40.3-15,61.4-43.8,61.4-93.4S348.3,209,296,208.9c-55.1-0.1-96.8,43.6-96.1,93.5s24.4,83,62.4,94.9L195,563
		C104.8,539.7,13.2,433.3,13.2,302.4C13.2,147.3,137.8,21.5,294,21.5s282.8,125.7,282.8,280.8c0,133-90.8,237.9-182.9,261.1
		L328.7,395.8z"/>
	<g id="flowRoot5282" transform="matrix(0.6218844,0,0,0.6218844,741.3993,442.86307)">
		<path id="path3432" class="st1" d="M-297.1,165.7c1.5,0.5,3,1.6,4.4,3.3c1.5,1.7,2.9,4,4.4,7l7.2,14.3h-7.6l-6.7-13.5
			c-1.7-3.5-3.4-5.8-5.1-7c-1.6-1.1-3.8-1.7-6.6-1.7h-7.7v22.2h-7.1v-52.5h16c6,0,10.5,1.3,13.4,3.8c3,2.5,4.4,6.3,4.4,11.4
			c0,3.3-0.8,6-2.3,8.2C-291.9,163.4-294.2,164.9-297.1,165.7 M-314.9,143.7v18.6h8.9c3.4,0,6-0.8,7.7-2.4c1.8-1.6,2.6-3.9,2.6-7
			c0-3.1-0.9-5.4-2.6-6.9c-1.7-1.6-4.3-2.4-7.7-2.4H-314.9"/>
	</g>

		<path id="path5290" class="st2" d="
		M574.9,545.5c0,12.7-10.3,23-23,23c-12.7,0-23-10.3-23-23c0-12.7,10.3-23,23-23C564.6,522.4,574.9,532.7,574.9,545.5
		C574.9,545.4,574.9,545.5,574.9,545.5z"/>
</g>
</svg>
