<svg xmlns="http://www.w3.org/2000/svg" viewBox="-1 -1 512 512" width="512" height="512"><g fill="#47848f" fill-rule="evenodd"><path d="M188.371 115.145c-64.116-11.678-114.81.545-135.013 35.54C38.28 176.797 42.59 211.42 63.809 248.43a6.575 6.575 0 1 0 11.408-6.54c-19.115-33.337-22.835-63.22-10.474-84.63 16.784-29.07 62.002-39.973 121.273-29.177a6.575 6.575 0 1 0 2.356-12.937zM97.148 293.417c25.925 28.49 59.606 55.21 98.018 77.387 93.009 53.698 192.02 68.05 240.817 34.776a6.575 6.575 0 0 0-7.408-10.864c-43.672 29.779-137.73 16.145-226.835-35.3-37.262-21.531-69.876-47.406-94.866-74.868a6.575 6.575 0 0 0-9.724 8.85z"/><path d="M420.433 285.419c41.983-49.596 56.641-99.478 36.477-134.4-14.836-25.696-46.2-39.263-87.884-39.806a6.574 6.574 0 1 0-.17 13.148c37.488.488 64.507 12.176 76.666 33.232 16.748 29.008 3.676 73.491-35.125 119.33a6.575 6.575 0 0 0 10.037 8.496zm-107.91-168.085c-37.958 8.133-78.36 24.034-117.163 46.437-96.013 55.431-158.643 137.17-149.945 196.45a6.575 6.575 0 1 0 13.01-1.909c-7.723-52.64 51.644-130.118 143.509-183.156 37.64-21.733 76.762-37.13 113.343-44.968a6.575 6.575 0 1 0-2.755-12.857z"/><path d="M156.98 401.28c21.95 61.293 57.86 99.031 98.242 99.031 29.45 0 56.697-20.075 77.943-55.418a6.575 6.575 0 0 0-11.27-6.775c-19.094 31.764-42.548 49.044-66.673 49.044-33.544 0-65.573-33.659-85.862-90.313a6.575 6.575 0 0 0-12.38 4.434zm200.498-11.99c11.363-36.31 17.466-78.201 17.466-121.854 0-108.922-38.123-202.818-92.423-226.927a6.574 6.574 0 1 0-5.336 12.018c48.429 21.504 84.61 110.615 84.61 214.912 0 42.347-5.911 82.916-16.867 117.926a6.574 6.574 0 1 0 12.55 3.927zm123.837-6.419c0-17.379-14.089-31.467-31.468-31.467-17.379 0-31.467 14.089-31.467 31.467 0 17.38 14.088 31.468 31.467 31.468 17.38 0 31.468-14.089 31.468-31.468zm-13.15 0c0 10.117-8.2 18.319-18.318 18.319-10.116 0-18.318-8.202-18.318-18.319 0-10.116 8.201-18.318 18.318-18.318s18.318 8.202 18.318 18.318zm-408.012 31.46c17.379 0 31.467-14.088 31.467-31.468 0-17.379-14.089-31.467-31.467-31.467-17.38 0-31.468 14.089-31.468 31.467 0 17.38 14.089 31.468 31.468 31.468zm0-13.15c-10.117 0-18.318-8.2-18.318-18.318 0-10.116 8.2-18.317 18.318-18.317 10.116 0 18.317 8.2 18.317 18.317s-8.2 18.319-18.317 18.319z"/><path d="M255.222 72.623c17.38 0 31.468-14.088 31.468-31.467 0-17.379-14.089-31.467-31.468-31.467-17.379 0-31.467 14.088-31.467 31.467 0 17.38 14.089 31.467 31.467 31.467zm0-13.149c-10.116 0-18.318-8.201-18.318-18.318s8.202-18.318 18.318-18.318c10.117 0 18.318 8.201 18.318 18.318s-8.2 18.318-18.318 18.318zm4.806 230.235c-12.29 2.655-24.4-5.156-27.06-17.447-2.65-12.29 5.155-24.4 17.446-27.06 12.29-2.656 24.4 5.155 27.06 17.446 2.656 12.29-5.155 24.4-17.446 27.06z"/></g></svg>