<svg xmlns="http://www.w3.org/2000/svg" viewBox="0 0 590 590"><path d="M328.7 395.8c40.3-15 61.4-43.8 61.4-93.4S348.3 209 296 208.9c-55.1-.1-96.8 43.6-96.1 93.5s24.4 83 62.4 94.9L195 563C104.8 539.7 13.2 433.3 13.2 302.4 13.2 147.3 137.8 21.5 294 21.5s282.8 125.7 282.8 280.8c0 133-90.8 237.9-182.9 261.1l-65.2-167.6z" fill="#3fa648" stroke="#23552a" stroke-width="19.212" stroke-linecap="round" stroke-linejoin="round"/><path d="M556.637 545.91c.933.31 1.866.994 2.737 2.052.933 1.057 1.803 2.487 2.736 4.353l4.478 8.893h-4.727l-4.166-8.396c-1.058-2.176-2.115-3.607-3.172-4.353-.995-.684-2.363-1.057-4.104-1.057h-4.789v13.806h-4.415v-32.65h9.95c3.731 0 6.53.81 8.333 2.364 1.866 1.555 2.736 3.918 2.736 7.09 0 2.052-.497 3.73-1.43 5.099-.933 1.368-2.363 2.3-4.167 2.798m-11.07-13.681v11.567h5.536c2.114 0 3.731-.498 4.788-1.493 1.12-.995 1.617-2.425 1.617-4.353s-.56-3.358-1.617-4.29c-1.057-.996-2.674-1.493-4.788-1.493h-5.535" fill="#010101"/><path d="M574.9 545.5c0 12.7-10.3 23-23 23s-23-10.3-23-23 10.3-23 23-23c12.7-.1 23 10.2 23 23 0-.1 0 0 0 0z" fill="none" stroke="#010101" stroke-width="7.524" stroke-linecap="round" stroke-linejoin="round"/></svg>